# xmcd
#
# Track frame offsets:
#	182
#	18412
#	37012
#	54050
#	71707
#	86880
#	105885
#	127307
#	147517
#	161292
#
# Disc length: 2343 seconds
#
# Revision: 1
# Processed by: cddbd v1.5.2PL0 Copyright (c) Steve Scherf et al.
# Submitted via: audiograbber 1.83.01
#
DISCID=8509250a
DTITLE=Albert Hall - King of the Country Waltz
DYEAR=1900
DGENRE=Country
TTITLE0=King of the Country Waltz
TTITLE1=Music of a Memory
TTITLE2=Rosanne
TTITLE3=Sentimental Part Again
TTITLE4=Blue Moon Cafe
TTITLE5=Favourite Memory
TTITLE6=Why Don't You Hear Me
TTITLE7=Face in the Mirror
TTITLE8=Time Travellers
TTITLE9=There Will Never Be Another You (feat. Patrice Black)
EXTD=
EXTT0=
EXTT1=
EXTT2=
EXTT3=
EXTT4=
EXTT5=
EXTT6=
EXTT7=
EXTT8=
EXTT9=
PLAYORDER=
